# xmcd
#
# Track frame offsets:
# 150
# 19317
# 43943
# 64760
# 91123
# 108525
# 130167
# 152022
# 168013
# 185870
# 202146
# 219556
#
# Disc length: 3129 seconds
#
#
# Revision: 0
# Processed by: cddbd v1.5.1PL0 Copyright (c) Steve Scherf et al.
# Submitted via: FreeRIP 2.91 
#
DISCID=ac0c370c
DTITLE=Mavis Staples - Have a little faith
DYEAR=2004
DGENRE=Gospel
TTITLE0=Step into the light
TTITLE1=Pops recipe
TTITLE2=Have a little faith
TTITLE3=God is not sleeping
TTITLE4=A dying man's plea
TTITLE5=Ain't no better than you
TTITLE6=I wanna thank you
TTITLE7=I still believe in you
TTITLE8=At the end of the day
TTITLE9=There's a devil on the loose
TTITLE10=In times like these
TTITLE11=Will the circle be unbroken
EXTD=
EXTT0=
EXTT1=
EXTT2=
EXTT3=
EXTT4=
EXTT5=
EXTT6=
EXTT7=
EXTT8=
EXTT9=
EXTT10=
EXTT11=
PLAYORDER=
